<?xml version="1.0" encoding="utf-8"?>
<!-- Generator: Adobe Illustrator 24.0.2, SVG Export Plug-In . SVG Version: 6.00 Build 0)  -->
<svg version="1.1" baseProfile="tiny" id="Capa_1" xmlns="http://www.w3.org/2000/svg" xmlns:xlink="http://www.w3.org/1999/xlink"
	 x="0px" y="0px" viewBox="0 0 620 128" xml:space="preserve">
<rect display="none" fill="#FFFFFF" width="620" height="128"/>
<g>
	<g>
		<path fill="#2B275C" d="M163.4,4.8c4.2,0,8,0.4,11.5,1.3c3.5,0.9,6.2,1.7,8.1,2.5l-4.4,17.8c-2-0.9-4.2-1.6-6.5-2
			c-2.4-0.4-4.5-0.7-6.5-0.7c-2.7,0-5,0.4-6.8,1.1c-1.9,0.8-3.3,1.8-4.4,3.1c-1,1.3-1.8,2.8-2.3,4.7c-0.4,1.8-0.7,3.8-0.7,5.8v3.9
			h27.6v18.6h-27.6v60.3h-22.4V38c0-10.2,2.9-18.3,8.6-24.3C143.6,7.8,152.1,4.8,163.4,4.8z"/>
		<path fill="#2B275C" d="M210.2,40.1c6.6,0,12.1,0.8,16.5,2.3c4.4,1.5,7.9,3.7,10.6,6.5c2.6,2.8,4.5,6.2,5.6,10.2
			c1.1,4,1.7,8.5,1.7,13.3v46.5c-3.2,0.7-7.7,1.5-13.4,2.5c-5.7,0.9-12.6,1.4-20.7,1.4c-5.1,0-9.7-0.5-13.9-1.4
			c-4.2-0.9-7.7-2.4-10.7-4.4c-3-2-5.3-4.7-6.9-8c-1.6-3.3-2.4-7.4-2.4-12.2c0-4.6,0.9-8.5,2.8-11.7c1.8-3.2,4.3-5.7,7.4-7.6
			c3.1-1.9,6.6-3.3,10.6-4.1c4-0.8,8.1-1.3,12.4-1.3c2.9,0,5.5,0.1,7.7,0.4c2.3,0.3,4.1,0.6,5.5,1v-2.1c0-3.8-1.2-6.8-3.5-9.2
			c-2.3-2.3-6.3-3.4-12-3.4c-3.8,0-7.6,0.3-11.3,0.8c-3.7,0.6-6.9,1.3-9.6,2.3l-2.9-18c1.3-0.4,2.9-0.8,4.9-1.3
			c1.9-0.5,4.1-0.8,6.4-1.2c2.3-0.3,4.7-0.6,7.3-0.9C205,40.3,207.6,40.1,210.2,40.1z M212,105.5c2.2,0,4.3,0,6.3-0.2
			c2-0.1,3.6-0.2,4.8-0.5V88c-0.9-0.2-2.3-0.4-4-0.6c-1.8-0.2-3.5-0.3-5-0.3c-2.1,0-4.1,0.1-5.9,0.4c-1.9,0.3-3.5,0.7-4.9,1.4
			c-1.4,0.7-2.5,1.7-3.3,2.9c-0.8,1.2-1.2,2.7-1.2,4.5c0,3.5,1.2,5.9,3.5,7.3C204.6,104.9,207.9,105.5,212,105.5z"/>
		<path fill="#2B275C" d="M279.9,105.1c4.1,0,7-0.4,8.7-1.2c1.7-0.8,2.5-2.3,2.5-4.6c0-1.8-1.1-3.4-3.3-4.7
			c-2.2-1.3-5.6-2.9-10.1-4.6c-3.5-1.3-6.7-2.6-9.5-4c-2.9-1.4-5.3-3.1-7.3-5c-2-2-3.6-4.3-4.6-7c-1.1-2.7-1.6-5.9-1.6-9.8
			c0-7.4,2.7-13.2,8.3-17.5c5.5-4.3,13-6.5,22.6-6.5c4.8,0,9.4,0.4,13.8,1.3c4.4,0.9,7.9,1.8,10.5,2.8L306,61.6
			c-2.6-0.9-5.4-1.7-8.5-2.4c-3.1-0.7-6.5-1-10.3-1c-7,0-10.5,2-10.5,5.9c0,0.9,0.1,1.7,0.5,2.4c0.3,0.7,0.9,1.4,1.8,2
			c0.9,0.7,2.1,1.4,3.7,2.1c1.5,0.8,3.5,1.6,5.9,2.5c4.9,1.8,8.9,3.6,12.1,5.4c3.2,1.8,5.7,3.7,7.6,5.7c1.8,2,3.1,4.3,3.9,6.8
			c0.8,2.5,1.1,5.4,1.1,8.7c0,7.8-2.9,13.7-8.8,17.7c-5.9,4-14.1,6-24.8,6c-7,0-12.8-0.6-17.5-1.8c-4.6-1.2-7.9-2.2-9.7-3l3.8-18.1
			c3.8,1.5,7.7,2.7,11.7,3.5C272.1,104.7,276,105.1,279.9,105.1z"/>
		<path fill="#2B275C" d="M321.8,22.6l22.4-3.6v23.3H371v18.6h-26.8v27.8c0,4.7,0.8,8.5,2.5,11.3c1.7,2.8,5,4.2,10,4.2
			c2.4,0,4.9-0.2,7.4-0.7c2.5-0.5,4.9-1.1,7-1.9l3.2,17.4c-2.7,1.1-5.7,2.1-9,2.9c-3.3,0.8-7.4,1.2-12.2,1.2
			c-6.1,0-11.2-0.8-15.2-2.5c-4-1.7-7.2-3.9-9.6-6.9c-2.4-2.9-4.1-6.5-5-10.7c-1-4.2-1.4-8.8-1.4-14V22.6z"/>
		<path fill="#2B275C" d="M374.9,82.3c0-7,1.1-13.1,3.2-18.4c2.1-5.3,5-9.6,8.5-13.1c3.5-3.5,7.5-6.2,12.1-8c4.5-1.8,9.2-2.7,14-2.7
			c11.2,0,20,3.4,26.5,10.3c6.5,6.9,9.8,16.9,9.8,30.2c0,1.3-0.1,2.7-0.1,4.3c-0.1,1.6-0.2,2.9-0.3,4.1h-50.7
			c0.5,4.6,2.6,8.3,6.5,11c3.8,2.7,8.9,4,15.3,4c4.1,0,8.1-0.4,12.1-1.1c3.9-0.8,7.2-1.7,9.7-2.8l3,18.2c-1.2,0.6-2.8,1.2-4.8,1.8
			c-2,0.6-4.2,1.1-6.7,1.6c-2.5,0.5-5.1,0.8-7.9,1.1c-2.8,0.3-5.6,0.5-8.4,0.5c-7.1,0-13.3-1.1-18.5-3.2s-9.6-5-13-8.6
			c-3.5-3.6-6-8-7.6-13C375.7,93.5,374.9,88.1,374.9,82.3z M427.4,73.8c-0.1-1.9-0.4-3.8-1-5.6c-0.6-1.8-1.4-3.4-2.5-4.8
			c-1.2-1.4-2.6-2.5-4.4-3.5c-1.8-0.9-3.9-1.3-6.5-1.3c-2.5,0-4.7,0.4-6.5,1.3c-1.8,0.9-3.3,2-4.5,3.4c-1.2,1.4-2.1,3-2.8,4.9
			c-0.7,1.9-1.1,3.7-1.4,5.6H427.4z"/>
		<path fill="#2B275C" d="M506.3,62c-2-0.5-4.3-1-7-1.6c-2.7-0.5-5.6-0.8-8.7-0.8c-1.4,0-3.1,0.1-5,0.4c-2,0.3-3.4,0.5-4.4,0.8v60.3
			h-22.3V46.4c4-1.4,8.7-2.7,14.2-4c5.4-1.2,11.5-1.9,18.2-1.9c1.2,0,2.6,0.1,4.3,0.2c1.7,0.2,3.4,0.4,5.1,0.6
			c1.7,0.3,3.4,0.6,5.1,0.9c1.7,0.4,3.1,0.8,4.3,1.3L506.3,62z"/>
		<path fill="#EB593C" d="M539,19.4c0,4.1-1.3,7.3-4,9.7c-2.7,2.4-5.8,3.5-9.4,3.5c-3.6,0-6.7-1.2-9.4-3.5c-2.7-2.3-4-5.6-4-9.7
			c0-4.1,1.3-7.3,4-9.7c2.6-2.3,5.8-3.5,9.4-3.5c3.6,0,6.7,1.2,9.4,3.5C537.6,12.1,539,15.4,539,19.4z M536.9,121.1h-22.3V42.3h22.3
			V121.1z"/>
		<path fill="#EB593C" d="M550.3,44.9c3.8-1.1,8.7-2.1,14.7-3.1c6-0.9,12.3-1.4,18.9-1.4c6.7,0,12.3,0.9,16.7,2.6
			c4.4,1.8,8,4.2,10.6,7.4c2.6,3.2,4.4,7,5.5,11.4c1.1,4.4,1.6,9.3,1.6,14.7v44.5h-22.3V79.3c0-7.2-1-12.3-2.8-15.3
			c-1.9-3-5.5-4.5-10.7-4.5c-1.6,0-3.3,0.1-5.1,0.2c-1.8,0.2-3.4,0.3-4.8,0.5v60.9h-22.3V44.9z"/>
	</g>
	<path fill="#8A89AD" d="M18.3,120.1L18.3,120.1c-9.3,0-16.8-7.5-16.8-16.8V24.7c0-9.3,7.5-16.8,16.8-16.8h0
		c9.3,0,16.8,7.5,16.8,16.8v78.6C35.1,112.6,27.6,120.1,18.3,120.1z"/>
	<path fill="#616194" d="M43.5,120.1L43.5,120.1c-9.3,0-16.8-7.5-16.8-16.8V24.7c0-9.3,7.5-16.8,16.8-16.8h0
		c9.3,0,16.8,7.5,16.8,16.8v78.6C60.3,112.6,52.8,120.1,43.5,120.1z"/>
	<path fill="#363371" d="M69,120.1L69,120.1c-9.3,0-16.8-7.5-16.8-16.8V24.7c0-9.3,7.5-16.8,16.8-16.8h0c9.3,0,16.8,7.5,16.8,16.8
		v78.6C85.8,112.6,78.3,120.1,69,120.1z"/>
	<path fill="#2B275C" d="M111.7,103.3c0,9.3-7.5,16.8-16.8,16.8h0c-9.3,0-16.8-7.5-16.8-16.8V24.7c0-9.3,7.5-16.8,16.8-16.8h0
		c9.3,0,16.8,7.5,16.8,16.8"/>
</g>
<path fill="#8A89AD" d="M25.7,283.4L25.7,283.4c-9.3,0-16.8-7.5-16.8-16.8V188c0-9.3,7.5-16.8,16.8-16.8h0c9.3,0,16.8,7.5,16.8,16.8
	v78.6C42.5,275.9,35,283.4,25.7,283.4z"/>
<path fill="#616194" d="M50.9,283.4L50.9,283.4c-9.3,0-16.8-7.5-16.8-16.8V188c0-9.3,7.5-16.8,16.8-16.8h0c9.3,0,16.8,7.5,16.8,16.8
	v78.6C67.7,275.9,60.2,283.4,50.9,283.4z"/>
<path fill="#363371" d="M76.4,283.4L76.4,283.4c-9.3,0-16.8-7.5-16.8-16.8V188c0-9.3,7.5-16.8,16.8-16.8h0c9.3,0,16.8,7.5,16.8,16.8
	v78.6C93.2,275.9,85.7,283.4,76.4,283.4z"/>
<path fill="#2B275C" d="M119.1,266.6c0,9.3-7.5,16.8-16.8,16.8h0c-9.3,0-16.8-7.5-16.8-16.8V188c0-9.3,7.5-16.8,16.8-16.8h0
	c9.3,0,16.8,7.5,16.8,16.8"/>
<rect y="309.1" fill="#2B275C" width="620" height="128"/>
<g>
	<g>
		<path fill="#FFFFFF" d="M163.4,313.8c4.2,0,8,0.4,11.5,1.3c3.5,0.9,6.2,1.7,8.1,2.5l-4.4,17.8c-2-0.9-4.2-1.6-6.5-2
			c-2.4-0.4-4.5-0.7-6.5-0.7c-2.7,0-5,0.4-6.8,1.1c-1.9,0.8-3.3,1.8-4.4,3.1c-1,1.3-1.8,2.8-2.3,4.7c-0.4,1.8-0.7,3.8-0.7,5.8v3.9
			h27.6v18.6h-27.6v60.3h-22.4v-83.1c0-10.2,2.9-18.3,8.6-24.3C143.6,316.8,152.1,313.8,163.4,313.8z"/>
		<path fill="#FFFFFF" d="M210.2,349.2c6.6,0,12.1,0.8,16.5,2.3c4.4,1.5,7.9,3.7,10.6,6.5c2.6,2.8,4.5,6.2,5.6,10.2
			c1.1,4,1.7,8.5,1.7,13.3V428c-3.2,0.7-7.7,1.5-13.4,2.5c-5.7,0.9-12.6,1.4-20.7,1.4c-5.1,0-9.7-0.5-13.9-1.4
			c-4.2-0.9-7.7-2.4-10.7-4.4c-3-2-5.3-4.7-6.9-8c-1.6-3.3-2.4-7.4-2.4-12.2c0-4.6,0.9-8.5,2.8-11.7c1.8-3.2,4.3-5.7,7.4-7.6
			c3.1-1.9,6.6-3.3,10.6-4.1c4-0.8,8.1-1.3,12.4-1.3c2.9,0,5.5,0.1,7.7,0.4c2.3,0.3,4.1,0.6,5.5,1v-2.1c0-3.8-1.2-6.8-3.5-9.2
			c-2.3-2.3-6.3-3.4-12-3.4c-3.8,0-7.6,0.3-11.3,0.8c-3.7,0.6-6.9,1.3-9.6,2.3l-2.9-18c1.3-0.4,2.9-0.8,4.9-1.3
			c1.9-0.5,4.1-0.8,6.4-1.2c2.3-0.3,4.7-0.6,7.3-0.9C205,349.4,207.6,349.2,210.2,349.2z M212,414.6c2.2,0,4.3,0,6.3-0.2
			c2-0.1,3.6-0.2,4.8-0.5v-16.9c-0.9-0.2-2.3-0.4-4-0.6c-1.8-0.2-3.5-0.3-5-0.3c-2.1,0-4.1,0.1-5.9,0.4c-1.9,0.3-3.5,0.7-4.9,1.4
			c-1.4,0.7-2.5,1.7-3.3,2.9c-0.8,1.2-1.2,2.7-1.2,4.5c0,3.5,1.2,5.9,3.5,7.3C204.6,414,207.9,414.6,212,414.6z"/>
		<path fill="#FFFFFF" d="M279.9,414.2c4.1,0,7-0.4,8.7-1.2c1.7-0.8,2.5-2.3,2.5-4.6c0-1.8-1.1-3.4-3.3-4.7
			c-2.2-1.3-5.6-2.9-10.1-4.6c-3.5-1.3-6.7-2.6-9.5-4c-2.9-1.4-5.3-3.1-7.3-5c-2-2-3.6-4.3-4.6-7c-1.1-2.7-1.6-5.9-1.6-9.8
			c0-7.4,2.7-13.2,8.3-17.5c5.5-4.3,13-6.5,22.6-6.5c4.8,0,9.4,0.4,13.8,1.3c4.4,0.9,7.9,1.8,10.5,2.8l-3.9,17.4
			c-2.6-0.9-5.4-1.7-8.5-2.4c-3.1-0.7-6.5-1-10.3-1c-7,0-10.5,2-10.5,5.9c0,0.9,0.1,1.7,0.5,2.4c0.3,0.7,0.9,1.4,1.8,2
			c0.9,0.7,2.1,1.4,3.7,2.1c1.5,0.8,3.5,1.6,5.9,2.5c4.9,1.8,8.9,3.6,12.1,5.4c3.2,1.8,5.7,3.7,7.6,5.7c1.8,2,3.1,4.3,3.9,6.8
			c0.8,2.5,1.1,5.4,1.1,8.7c0,7.8-2.9,13.7-8.8,17.7c-5.9,4-14.1,6-24.8,6c-7,0-12.8-0.6-17.5-1.8c-4.6-1.2-7.9-2.2-9.7-3l3.8-18.1
			c3.8,1.5,7.7,2.7,11.7,3.5C272.1,413.8,276,414.2,279.9,414.2z"/>
		<path fill="#FFFFFF" d="M321.8,331.7l22.4-3.6v23.3H371v18.6h-26.8v27.8c0,4.7,0.8,8.5,2.5,11.3c1.7,2.8,5,4.2,10,4.2
			c2.4,0,4.9-0.2,7.4-0.7c2.5-0.5,4.9-1.1,7-1.9l3.2,17.4c-2.7,1.1-5.7,2.1-9,2.9c-3.3,0.8-7.4,1.2-12.2,1.2
			c-6.1,0-11.2-0.8-15.2-2.5c-4-1.7-7.2-3.9-9.6-6.9c-2.4-2.9-4.1-6.5-5-10.7c-1-4.2-1.4-8.8-1.4-14V331.7z"/>
		<path fill="#FFFFFF" d="M374.9,391.4c0-7,1.1-13.1,3.2-18.4c2.1-5.3,5-9.6,8.5-13.1c3.5-3.5,7.5-6.2,12.1-8
			c4.5-1.8,9.2-2.7,14-2.7c11.2,0,20,3.4,26.5,10.3c6.5,6.9,9.8,16.9,9.8,30.2c0,1.3-0.1,2.7-0.1,4.3c-0.1,1.6-0.2,2.9-0.3,4.1
			h-50.7c0.5,4.6,2.6,8.3,6.5,11c3.8,2.7,8.9,4,15.3,4c4.1,0,8.1-0.4,12.1-1.1c3.9-0.8,7.2-1.7,9.7-2.8l3,18.2
			c-1.2,0.6-2.8,1.2-4.8,1.8c-2,0.6-4.2,1.1-6.7,1.6c-2.5,0.5-5.1,0.8-7.9,1.1c-2.8,0.3-5.6,0.5-8.4,0.5c-7.1,0-13.3-1.1-18.5-3.2
			s-9.6-5-13-8.6c-3.5-3.6-6-8-7.6-13C375.7,402.6,374.9,397.2,374.9,391.4z M427.4,382.8c-0.1-1.9-0.4-3.8-1-5.6
			c-0.6-1.8-1.4-3.4-2.5-4.8c-1.2-1.4-2.6-2.5-4.4-3.5c-1.8-0.9-3.9-1.3-6.5-1.3c-2.5,0-4.7,0.4-6.5,1.3c-1.8,0.9-3.3,2-4.5,3.4
			c-1.2,1.4-2.1,3-2.8,4.9c-0.7,1.9-1.1,3.7-1.4,5.6H427.4z"/>
		<path fill="#FFFFFF" d="M506.3,371.1c-2-0.5-4.3-1-7-1.6c-2.7-0.5-5.6-0.8-8.7-0.8c-1.4,0-3.1,0.1-5,0.4c-2,0.3-3.4,0.5-4.4,0.8
			v60.3h-22.3v-74.7c4-1.4,8.7-2.7,14.2-4c5.4-1.2,11.5-1.9,18.2-1.9c1.2,0,2.6,0.1,4.3,0.2c1.7,0.2,3.4,0.4,5.1,0.6
			c1.7,0.3,3.4,0.6,5.1,0.9c1.7,0.4,3.1,0.8,4.3,1.3L506.3,371.1z"/>
		<path fill="#EB593C" d="M539,328.5c0,4.1-1.3,7.3-4,9.7c-2.7,2.4-5.8,3.5-9.4,3.5c-3.6,0-6.7-1.2-9.4-3.5c-2.7-2.3-4-5.6-4-9.7
			c0-4.1,1.3-7.3,4-9.7c2.6-2.3,5.8-3.5,9.4-3.5c3.6,0,6.7,1.2,9.4,3.5C537.6,321.2,539,324.4,539,328.5z M536.9,430.2h-22.3v-78.9
			h22.3V430.2z"/>
		<path fill="#EB593C" d="M550.3,354c3.8-1.1,8.7-2.1,14.7-3.1c6-0.9,12.3-1.4,18.9-1.4c6.7,0,12.3,0.9,16.7,2.6
			c4.4,1.8,8,4.2,10.6,7.4c2.6,3.2,4.4,7,5.5,11.4c1.1,4.4,1.6,9.3,1.6,14.7v44.5h-22.3v-41.8c0-7.2-1-12.3-2.8-15.3
			c-1.9-3-5.5-4.5-10.7-4.5c-1.6,0-3.3,0.1-5.1,0.2c-1.8,0.2-3.4,0.3-4.8,0.5v60.9h-22.3V354z"/>
	</g>
	<g>
		<path fill="#EDA7A2" d="M18.3,429.2L18.3,429.2c-9.3,0-16.8-7.5-16.8-16.8v-78.6c0-9.3,7.5-16.8,16.8-16.8h0
			c9.3,0,16.8,7.5,16.8,16.8v78.6C35.1,421.7,27.6,429.2,18.3,429.2z"/>
		<path fill="#EE897E" d="M43.5,429.2L43.5,429.2c-9.3,0-16.8-7.5-16.8-16.8v-78.6c0-9.3,7.5-16.8,16.8-16.8h0
			c9.3,0,16.8,7.5,16.8,16.8v78.6C60.3,421.7,52.8,429.2,43.5,429.2z"/>
		<path fill="#EE7460" d="M69,429.2L69,429.2c-9.3,0-16.8-7.5-16.8-16.8v-78.6c0-9.3,7.5-16.8,16.8-16.8h0c9.3,0,16.8,7.5,16.8,16.8
			v78.6C85.8,421.7,78.3,429.2,69,429.2z"/>
		<path fill="#EB593C" d="M111.7,412.4c0,9.3-7.5,16.8-16.8,16.8h0c-9.3,0-16.8-7.5-16.8-16.8v-78.6c0-9.3,7.5-16.8,16.8-16.8h0
			c9.3,0,16.8,7.5,16.8,16.8"/>
	</g>
</g>
<g>
</g>
<g>
</g>
<g>
</g>
<g>
</g>
<g>
</g>
<g>
</g>
</svg>
